:SAMPLES-PER-SECOND 30
:FULLY-SPECIFIED
:DEGREES
261
root  -4.501999833 40.69333414 4.976200119 38.63800049 -82.91210175 -31.34698486
lowerback  15.86120033 3.720989943 -6.606800079
upperback  4.931330204 3.065289974 -6.714650154
thorax  -3.597490072 1.338870049 -3.968290091
lowerneck  1.272549987 8.583669662 -7.663259983
upperneck  10.92660046 10.30679989 13.40960026
head  1.850960016 5.13338995 5.324429989
lclavicle  0 -9.442270133e-015 7.951389973e-016
lhumerus  -10.40750027 -0.9122099876 66.50920105
lradius  2.556801286e-031 -2.435489935e-031 136.3919983
lwrist  -7.062250077e-031 8.827812596e-031 55.60499954
lhand  -1.496451383e-031 -27.76390076 20.11240005
lfingers  90 7.125020027 -90
lthumb  89.89689403 5.08795885 91.16245106
rclavicle  0 -9.442270133e-015 7.951389973e-016
rhumerus  -23.02689934 7.985519886 -77.30549622
rradius  -6.580340726e-032 3.469270124e-031 100.7399979
rwrist  7.062250077e-031 7.062250077e-031 -50.43999863
rhand  -7.920061211e-032 -33.2840004 9.303460121
rfingers  -90 -7.125020027 -90
rthumb  -92.93752616 -24.25625642 -97.11982154
rfemur  -20.12779999 9.914190292 7.139339924
rtibia  -0 0 56.95100021
rfoot  -8.876052877e-032 -5.976260185 -5.371640205
rtoes  5.373923086 19.29304026 -105.8922705
lfemur  -44.76819992 1.205950022 3.043499947
ltibia  -0 0 56.85889816
lfoot  4.429807379e-032 4.856110096 -0.8340139985
ltoes  -4.250644065 -19.5611806 -102.515957
262
root  -4.569800069 40.64444594 4.949755556 36.43200684 -83.26499939 -29.3789978
lowerback  15.92440033 3.77222991 -6.766689777
upperback  5.121660233 3.082159996 -6.917789936
thorax  -3.42395997 1.33465004 -4.097760201
lowerneck  0.8007879853 8.543560028 -7.679749966
upperneck  11.13729954 10.25979996 13.47350025
head  1.989930034 5.130189896 5.377719879
lclavicle  0 -9.442270133e-015 7.951389973e-016
lhumerus  -12.15890026 -1.078469992 67.28820038
lradius  2.572813546e-031 -2.418568687e-031 136.7700043
lwrist  0 3.531125038e-031 54.60039902
lhand  -1.496451383e-031 -27.76390076 20.11240005
lfingers  90 7.125020027 -90
lthumb  89.89689403 5.08795885 91.16245106
rclavicle  0 -9.442270133e-015 7.951389973e-016
rhumerus  -23.11429977 8.538619995 -77.54070282
rradius  -6.620905656e-032 3.468498251e-031 100.8069992
rwrist  1.412450015e-030 5.296687558e-031 -50.40850067
rhand  -7.920061211e-032 -33.2840004 9.303460121
rfingers  -90 -7.125020027 -90
rthumb  -92.93752616 -24.25625642 -97.11982154
rfemur  -19.87669945 10.43260002 6.575550079
rtibia  -0 0 57.35639954
rfoot  -4.437940239e-032 -5.965620041 -4.020060062
rtoes  5.373923086 19.29304026 -105.8922705
lfemur  -44.70640182 0.8180509806 2.955579996
ltibia  -0 0 56.09320068
lfoot  4.426345199e-032 4.296430111 -0.2777610123
ltoes  -4.250644065 -19.5611806 -102.515957
263
root  -4.643644498 40.55977769 4.923910982 35.08200073 -83.4076004 -28.30300903
lowerback  16.10519981 3.806090117 -6.67016983
upperback  5.236130238 3.104059935 -7.093880177
thorax  -3.382339954 1.338529944 -4.353320122
lowerneck  0.4513120055 8.462479591 -7.424510002
upperneck  11.43019962 10.14190006 13.3803997
head  2.165719986 5.092490196 5.340209961
lclavicle  0 -9.442270133e-015 7.951389973e-016
lhumerus  -14.2482996 -1.096160054 68.29460144
lradius  2.582165276e-031 -2.408581849e-031 136.9920044
lwrist  0 5.296687558e-031 54.12120056
lhand  -1.496451383e-031 -27.76390076 20.11240005
lfingers  90 7.125020027 -90
lthumb  89.89689403 5.08795885 91.16245106
rclavicle  0 -9.442270133e-015 7.951389973e-016
rhumerus  -23.49850082 8.974470139 -77.81890106
rradius  -6.680221664e-032 3.467360729e-031 100.9049988
rwrist  7.062250077e-031 5.296687558e-031 -50.4917984
rhand  -7.920061211e-032 -33.2840004 9.303460121
rfingers  -90 -7.125020027 -90
rthumb  -92.93752616 -24.25625642 -97.11982154
rfemur  -19.30200005 11.00220013 6.336380005
rtibia  -0 0 57.22100067
rfoot  -6.658731182e-032 -6.11371994 -2.786590099
rtoes  5.373923086 19.29304026 -105.8922705
lfemur  -44.61769867 0.399390012 3.159610033
ltibia  -0 0 55.2682991
lfoot  4.976460995e-032 3.778310061 0.4709999859
ltoes  -4.250644065 -19.5611806 -102.515957
264
root  -4.730177677 40.45577763 4.89455546 34.10501099 -83.4838028 -27.56799316
lowerback  16.33760071 3.911420107 -6.731500149
upperback  5.243730068 3.195839882 -7.122270107
thorax  -3.496929884 1.381610036 -4.383669853
lowerneck  -0.04910660163 8.342670441 -7.249120235
upperneck  12.08889961 9.935700417 13.38140011
head  2.472409964 5.017749786 5.365690231
lclavicle  0 -9.442270133e-015 7.951389973e-016
lhumerus  -16.71610069 -0.9928479791 69.65139771
lradius  2.580735042e-031 -2.410114246e-031 136.9579926
lwrist  -7.062250077e-031 7.062250077e-031 53.80319977
lhand  -1.496451383e-031 -27.76390076 20.11240005
lfingers  90 7.125020027 -90
lthumb  89.89689403 5.08795885 91.16245106
rclavicle  0 -9.442270133e-015 7.951389973e-016
rhumerus  -24.1093998 9.312009811 -77.9858017
rradius  -6.649963464e-032 3.467942314e-031 100.8550034
rwrist  1.412450015e-030 5.296687558e-031 -50.62379837
rhand  -7.920061211e-032 -33.2840004 9.303460121
rfingers  -90 -7.125020027 -90
rthumb  -92.93752616 -24.25625642 -97.11982154
rfemur  -18.50130081 11.66919994 6.230500221
rtibia  -0 0 56.51589966
rfoot  -4.441372447e-032 -6.375319958 -2.018369913
rtoes  5.373923086 19.29304026 -105.8922705
lfemur  -44.54560089 0.1389649957 3.382879972
ltibia  -0 0 54.41419983
lfoot  4.421625541e-032 3.386080027 1.16881001
ltoes  -4.250644065 -19.5611806 -102.515957
265
root  -4.833511292 40.32933393 4.8549776 34.66598511 -83.50489807 -28.31100464
lowerback  16.37220001 4.00880003 -6.946589947
upperback  5.232389927 3.291369915 -7.002830029
thorax  -3.543879986 1.428380013 -4.15678978
lowerneck  -0.5929350257 8.280870438 -7.057159901
upperneck  12.85359955 9.800379753 13.33590031
head  2.814960003 4.978380203 5.379580021
lclavicle  0 -9.442270133e-015 7.951389973e-016
lhumerus  -19.4864006 -0.4999369979 71.00830078
lradius  2.569940964e-031 -2.421620838e-031 136.7019958
lwrist  -7.062250077e-031 5.296687558e-031 53.65579987
lhand  -1.496451383e-031 -27.76390076 20.11240005
lfingers  90 7.125020027 -90
lthumb  89.89689403 5.08795885 91.16245106
rclavicle  0 -9.442270133e-015 7.951389973e-016
rhumerus  -24.66200066 9.812239647 -78.13760376
rradius  -6.487070189e-032 3.471026252e-031 100.5859985
rwrist  7.062250077e-031 7.062250077e-031 -50.79199982
rhand  -7.920061211e-032 -33.2840004 9.303460121
rfingers  -90 -7.125020027 -90
rthumb  -92.93752616 -24.25625642 -97.11982154
rfemur  -17.55719948 12.45090008 6.347439766
rtibia  -0 0 55.22529984
rfoot  -4.442556723e-032 -6.510590076 -1.897019982
rtoes  5.373923086 19.29304026 -105.8922705
lfemur  -44.53099823 0.07636299729 3.812299967
ltibia  -0 0 53.54679871
lfoot  4.420706162e-032 3.178319931 1.797090054
ltoes  -4.250644065 -19.5611806 -102.515957
266
root  -4.944266672 40.16888836 4.80208885 38.68600464 -83.36660004 -32.50299072
lowerback  16.28899956 4.120739937 -6.888979912
upperback  5.195539951 3.477469921 -6.78455019
thorax  -3.546020031 1.524279952 -3.985830069
lowerneck  -0.9734550118 8.231450081 -6.680510044
upperneck  13.54139996 9.680000305 13.16020012
head  3.125319958 4.942409992 5.314139843
lclavicle  0 -9.442270133e-015 7.951389973e-016
lhumerus  -22.36599922 0.2185309976 72.36090088
lradius  2.549989998e-031 -2.442620528e-031 136.2319946
lwrist  -7.062250077e-031 7.062250077e-031 53.85589981
lhand  -1.496451383e-031 -27.76390076 20.11240005
lfingers  90 7.125020027 -90
lthumb  89.89689403 5.08795885 91.16245106
rclavicle  0 -9.442270133e-015 7.951389973e-016
rhumerus  -25.32320023 10.23279953 -78.31739807
rradius  -6.247019417e-032 3.475426811e-031 100.1900024
rwrist  7.062250077e-031 5.296687558e-031 -50.99539948
rhand  -7.920061211e-032 -33.2840004 9.303460121
rfingers  -90 -7.125020027 -90
rthumb  -92.93752616 -24.25625642 -97.11982154
rfemur  -16.49950027 13.39669991 6.981249809
rtibia  -0 0 53.38940048
rfoot  -6.66168046e-032 -6.346139908 -2.341890097
rtoes  5.373923086 19.29304026 -105.8922705
lfemur  -44.4612999 0.1061609983 4.869949818
ltibia  -0 0 52.66379929
lfoot  4.420409784e-032 3.108370066 2.524990082
ltoes  -4.250644065 -19.5611806 -102.515957
267
root  -5.061377878 39.98644371 4.760400141 43.94000244 -83.24649811 -37.90600586
lowerback  16.2112999 4.264729977 -6.492410183
upperback  5.120610237 3.750070095 -6.669660091
thorax  -3.563339949 1.664950013 -4.133810043
lowerneck  -1.506760001 8.126110077 -6.466229916
upperneck  14.40740013 9.461489677 13.17240047
head  3.504179955 4.864620209 5.346340179
lclavicle  0 -9.442270133e-015 7.951389973e-016
lhumerus  -25.26759911 1.03223002 73.63819885
lradius  2.519138035e-031 -2.474426721e-031 135.5130005
lwrist  -7.062250077e-031 5.296687558e-031 54.27659988
lhand  -1.496451383e-031 -27.76390076 20.11240005
lfingers  90 7.125020027 -90
lthumb  89.89689403 5.08795885 91.16245106
rclavicle  0 -9.442270133e-015 7.951389973e-016
rhumerus  -26.10169983 10.37310028 -78.56199646
rradius  -5.925146826e-032 3.481058803e-031 99.65979767
rwrist  7.062250077e-031 3.531125038e-031 -51.03699875
rhand  -7.920061211e-032 -33.2840004 9.303460121
rfingers  -90 -7.125020027 -90
rthumb  -92.93752616 -24.25625642 -97.11982154
rfemur  -15.35760021 14.47980022 7.69107008
rtibia  -0 0 51.07550049
rfoot  -4.440595833e-032 -6.284999847 -3.099529982
rtoes  5.373923086 19.29304026 -105.8922705
lfemur  -44.29330063 0.2741259933 6.075970173
ltibia  -0 0 51.7981987
lfoot  6.631127674e-032 3.188950062 3.247260094
ltoes  -4.250644065 -19.5611806 -102.515957
268
root  -5.186799943 39.78533407 4.721466575 49.20599365 -83.32060242 -43.1289978
lowerback  15.94540024 4.367259979 -6.368720055
upperback  4.943470001 3.924299955 -6.731989861
thorax  -3.594249964 1.756119967 -4.292129993
lowerneck  -2.141570091 8.08975029 -6.097370148
upperneck  15.33100033 9.308839798 13.2645998
head  3.916199923 4.833660126 5.386209965
lclavicle  0 -9.442270133e-015 7.951389973e-016
lhumerus  -28.3906002 2.318929911 74.32129669
lradius  2.483380107e-031 -2.510312188e-031 134.6909943
lwrist  0 7.062250077e-031 54.8594017
lhand  -1.496451383e-031 -27.76390076 20.11240005
lfingers  90 7.125020027 -90
lthumb  89.89689403 5.08795885 91.16245106
rclavicle  0 -9.442270133e-015 7.951389973e-016
rhumerus  -26.81349945 10.56509972 -79.18959808
rradius  -5.494190975e-032 3.488120223e-031 98.95120239
rwrist  7.062250077e-031 5.296687558e-031 -51.06190109
rhand  -7.920061211e-032 -33.2840004 9.303460121
rfingers  -90 -7.125020027 -90
rthumb  -92.93752616 -24.25625642 -97.11982154
rfemur  -14.51130009 15.75090027 8.106410027
rtibia  -0 0 48.75239944
rfoot  -4.447435417e-032 -7.03990984 -3.91692996
rtoes  5.373923086 19.29304026 -105.8922705
lfemur  -44.19390106 0.6145200133 7.078589916
ltibia  -0 0 50.93849945
lfoot  4.422347904e-032 3.54073 3.759229898
ltoes  -4.250644065 -19.5611806 -102.515957
